<svg width="58" height="58" viewBox="0 0 58 58" fill="none" xmlns="http://www.w3.org/2000/svg">
<g filter="url(#filter0_d)">
<rect x="14" y="10" width="30" height="30" rx="9" fill="#1D1C1C"/>
</g>
<path d="M34.6568 19.3431C33.1458 17.8322 31.1369 17 29 17C26.8631 17 24.8541 17.8322 23.3431 19.3431C21.8321 20.8541 21 22.8631 21 25C21 27.1369 21.8321 29.1458 23.3431 30.6568C24.8541 32.1678 26.8631 33 29 33C31.1369 33 33.1458 32.1678 34.6568 30.6568C36.1678 29.1458 37 27.1369 37 25C37 22.8631 36.1678 20.8542 34.6568 19.3431ZM29 32.0625C25.1057 32.0625 21.9375 28.8943 21.9375 25C21.9375 21.1057 25.1057 17.9375 29 17.9375C32.8943 17.9375 36.0625 21.1057 36.0625 25C36.0625 28.8943 32.8943 32.0625 29 32.0625Z" fill="white"/>
<path d="M32.8219 22.4327C32.6389 22.2497 32.3421 22.2497 32.159 22.4327L28.0197 26.572L25.8407 24.3931C25.6577 24.21 25.3609 24.21 25.1778 24.3931C24.9948 24.5761 24.9948 24.8729 25.1778 25.056L27.6882 27.5664C27.7798 27.6579 27.8997 27.7037 28.0197 27.7037C28.1396 27.7037 28.2596 27.6579 28.3511 27.5664L32.8219 23.0956C33.005 22.9125 33.005 22.6157 32.8219 22.4327Z" fill="white"/>
<defs>
<filter id="filter0_d" x="0" y="0" width="58" height="58" filterUnits="userSpaceOnUse" color-interpolation-filters="sRGB">
<feFlood flood-opacity="0" result="BackgroundImageFix"/>
<feColorMatrix in="SourceAlpha" type="matrix" values="0 0 0 0 0 0 0 0 0 0 0 0 0 0 0 0 0 0 127 0"/>
<feOffset dy="4"/>
<feGaussianBlur stdDeviation="7"/>
<feColorMatrix type="matrix" values="0 0 0 0 0 0 0 0 0 0 0 0 0 0 0 0 0 0 0.25 0"/>
<feBlend mode="normal" in2="BackgroundImageFix" result="effect1_dropShadow"/>
<feBlend mode="normal" in="SourceGraphic" in2="effect1_dropShadow" result="shape"/>
</filter>
</defs>
</svg>
