<svg width="28" height="38" viewBox="0 0 28 38" fill="none" xmlns="http://www.w3.org/2000/svg">
<path d="M27.5643 15.84L23.571 0.413217C23.508 0.169878 23.288 0 23.0358 0H5.22618C4.97398 0 4.75373 0.169878 4.69068 0.413217L3.62628 4.52559C3.54999 4.82029 3.72792 5.12074 4.0236 5.19678C4.31956 5.27311 4.62071 5.09548 4.69672 4.80078L5.08396 3.30574H23.178L25.7453 13.2229H2.51669L4.10795 7.07606C4.18425 6.78135 4.00632 6.48091 3.71064 6.40486C3.41467 6.32882 3.11352 6.50616 3.03752 6.80058L0.697409 15.84C0.654799 16.005 0.691075 16.1806 0.795585 16.3152C0.900384 16.4498 1.0619 16.5287 1.23263 16.5287H6.41927V19.9291C5.7758 20.1567 5.31342 20.769 5.31342 21.4876C5.31342 22.3987 6.05737 23.1404 6.97176 23.1404C7.88615 23.1404 8.6301 22.3987 8.6301 21.4876C8.6301 20.7693 8.16801 20.157 7.52483 19.9294V16.5287H10.8401C10.0265 19.6175 9.79008 22.7528 10.1396 25.8594C10.1713 26.1409 10.4105 26.3489 10.6883 26.3489C10.7088 26.3489 10.7295 26.3478 10.7505 26.3455C11.054 26.3116 11.2722 26.039 11.2383 25.7365C10.8933 22.6718 11.1461 19.5764 11.9857 16.5287H15.9349C17.1308 20.8689 17.1291 25.2636 15.9297 29.6047H11.9903C11.8475 29.0888 11.7202 28.5668 11.6111 28.048C11.5483 27.7504 11.2552 27.5593 10.9564 27.6221C10.6575 27.6844 10.4664 27.9765 10.5288 28.2744C10.6221 28.7174 10.7292 29.1625 10.8464 29.6047H10.6668C7.92358 29.6047 5.69173 31.8292 5.69173 34.5633V36.7671C5.69173 37.2329 6.07205 37.6119 6.53933 37.6119H21.7224C22.1896 37.6119 22.57 37.2329 22.57 36.7671V34.5633C22.57 31.8292 20.3381 29.6047 17.5949 29.6047H17.0735C18.2214 25.2622 18.2234 20.8706 17.0787 16.5287H20.7369V19.9294C20.0937 20.157 19.6316 20.7693 19.6316 21.4873C19.6316 22.3987 20.3758 23.1402 21.2899 23.1402C22.2043 23.1402 22.9483 22.3987 22.9483 21.4873C22.9483 20.769 22.4862 20.1567 21.8424 19.9291V16.5287H22.9189C23.2241 16.5287 23.4717 16.2822 23.4717 15.9777C23.4717 15.6733 23.2241 15.4268 22.9189 15.4268H1.94635L2.23138 14.3246H26.0303L26.3156 15.4268H25.2774C24.972 15.4268 24.7247 15.6733 24.7247 15.9777C24.7247 16.2822 24.972 16.5287 25.2774 16.5287H27.0291C27.2001 16.5287 27.3613 16.4498 27.4661 16.3152C27.5709 16.1806 27.6072 16.005 27.5643 15.84ZM6.97176 22.0385C6.66687 22.0385 6.41898 21.7912 6.41898 21.4876C6.41898 21.1837 6.66687 20.9366 6.97176 20.9366C7.27665 20.9366 7.52454 21.1837 7.52454 21.4876C7.52454 21.7912 7.27665 22.0385 6.97176 22.0385ZM21.4644 34.5633V36.51H6.79729V34.5633C6.79729 32.4367 8.53308 30.7066 10.6668 30.7066H17.5949C19.7286 30.7066 21.4644 32.4367 21.4644 34.5633ZM21.2899 22.0385C20.9853 22.0385 20.7372 21.7912 20.7372 21.4876C20.7372 21.1837 20.9853 20.9366 21.2899 20.9366C21.5948 20.9366 21.8427 21.1837 21.8427 21.4876C21.8427 21.7912 21.5948 22.0385 21.2899 22.0385ZM5.36898 2.20354L5.6543 1.10191H22.6074L22.8927 2.20354H5.36898Z" fill="black"/>
</svg>
