<svg width="26" height="21" viewBox="0 0 26 21" fill="none" xmlns="http://www.w3.org/2000/svg">
<path fill-rule="evenodd" clip-rule="evenodd" d="M4 0C1.79083 0 0 1.79086 0 4V13C0 15.2091 1.79083 17 4 17H11.3607L14 21L16.6393 17H22C24.2092 17 26 15.2091 26 13V4C26 1.79086 24.2092 0 22 0H4Z" fill="black"/>
<path d="M15.9343 11.236H13.3183L14.6623 9.988C15.3823 9.316 15.8503 8.62 15.8503 7.612C15.8503 6.58 15.3943 5.968 15.0703 5.644C14.7103 5.284 14.0143 4.816 12.8143 4.816C11.8183 4.816 11.0863 5.14 10.5463 5.68C10.1263 6.1 9.67034 6.856 9.65834 7.9H11.8063C11.8183 7.624 11.9023 7.168 12.0943 6.916C12.2263 6.748 12.4543 6.592 12.7903 6.592C13.0543 6.592 13.2583 6.7 13.3783 6.832C13.6183 7.096 13.6183 7.516 13.6183 7.6C13.6183 8.116 13.4023 8.512 13.1863 8.848C12.8023 9.46 12.2623 10.12 11.5423 10.876L9.51434 13H15.9343V11.236Z" fill="white"/>
</svg>
