<svg width="85" height="20" viewBox="0 0 85 20" fill="none" xmlns="http://www.w3.org/2000/svg">
<path d="M0 0H85V20H0V0Z" fill="black"/>
<path d="M7.85847 7.33V14H9.52847C10.0385 14 10.8685 13.91 11.3985 13.35C11.7185 13.01 11.8385 12.63 11.8385 12.15C11.8385 11.74 11.7585 11.28 11.3985 10.9C11.0685 10.56 10.6585 10.45 10.5385 10.42C10.6885 10.35 10.8885 10.22 11.0385 9.96C11.1985 9.7 11.2385 9.43 11.2385 9.17C11.2385 8.62 11.0685 8.19 10.7085 7.85C10.2685 7.44 9.72847 7.33 8.86847 7.33H7.85847ZM8.87847 8.29H9.22847C9.51847 8.29 9.80847 8.32 10.0385 8.54C10.2485 8.74 10.2785 8.98 10.2785 9.18C10.2785 9.41 10.2485 9.72 10.0185 9.94C9.77847 10.17 9.43847 10.2 9.18847 10.2H8.87847V8.29ZM8.87847 11.04H9.51847C9.87847 11.04 10.2885 11.07 10.5685 11.34C10.7385 11.51 10.8385 11.77 10.8385 12.04C10.8385 12.34 10.7085 12.62 10.5085 12.78C10.2485 12.99 9.78847 13.04 9.49847 13.04H8.87847V11.04ZM20.4761 7.33H19.4561V14H20.4761V10.93H23.3361V14H24.3561V7.33H23.3361V9.97H20.4761V7.33ZM32.58 14H33.68L30.52 6.94L27.2 14H28.3L29.03 12.39H31.88L32.58 14ZM29.45 11.43L30.48 9.17L31.47 11.43H29.45ZM37.3774 7.33V11.31C37.3774 11.89 37.3874 12.56 37.0474 12.89C36.9174 13.02 36.7074 13.12 36.4474 13.12C36.3074 13.12 36.1774 13.09 36.0774 13.06V14C36.1974 14.03 36.3474 14.06 36.5274 14.06C36.9474 14.06 37.3974 13.94 37.7374 13.66C38.3674 13.14 38.3974 12.37 38.3974 11.61V8.29H40.6174V14H41.6374V7.33H37.3774ZM49.7413 14H50.7613V7.05L46.2613 11.84V7.33H45.2413V14.3L49.7413 9.51V14ZM57.8004 14H58.8204V7.33H57.8004V10.32C57.4404 10.36 57.0404 10.39 56.6004 10.39C56.1404 10.39 55.7704 10.36 55.5404 10.18C55.1804 9.9 55.1804 9.43 55.1804 9.15V7.33H54.1604V9.3C54.1604 9.62 54.1904 10.43 54.8104 10.92C55.2804 11.29 55.9904 11.33 56.4404 11.33C56.7504 11.33 57.4104 11.29 57.8004 11.26V14ZM66.9249 14H67.9449V7.05L63.4449 11.84V7.33H62.4249V14.3L66.9249 9.51V14ZM76.044 14H77.064V7.05L72.564 11.84V7.33H71.544V14.3L76.044 9.51V14Z" fill="white"/>
</svg>
