<svg width="422" height="1178" viewBox="0 0 422 1178" fill="none" xmlns="http://www.w3.org/2000/svg">
<path opacity="0.6" d="M259.654 237.061L192.731 312.573C150.088 360.689 122.851 420.484 114.538 484.236L110.774 513.095C108.852 527.834 109.29 542.784 112.072 557.385L116.973 583.111C131.269 658.156 211.545 700.505 281.557 669.937C352.565 638.933 433.798 682.946 446.606 759.361L473.177 917.89C492.162 1031.16 611.94 1097 717.745 1052.32L845.286 998.459C989.21 937.68 950.862 723.949 794.785 716.998C719.833 713.659 659.502 654.262 654.995 579.371L652.133 531.808C649.547 488.836 662.975 446.43 689.824 412.779C745.092 343.508 739.503 243.774 676.841 181.112L660.287 164.557C599.406 103.677 506.429 88.5198 429.365 126.912L355.103 163.908C318.892 181.948 286.487 206.783 259.654 237.061Z" fill="#F5F5F5"/>
</svg>
