<svg width="718" height="1090" viewBox="0 0 718 1090" fill="none" xmlns="http://www.w3.org/2000/svg">
<path opacity="0.6" d="M-284.257 290.138L-329.356 380.398C-358.092 437.911 -368.925 502.718 -360.455 566.45L-356.621 595.3C-354.662 610.033 -350.37 624.361 -343.904 637.744L-332.512 661.326C-299.28 730.113 -210.779 750.242 -151.064 702.595C-90.4994 654.27 -0.642812 675.758 31.5065 746.255L98.2022 892.505C145.858 997.004 278.594 1029.6 369.229 959.054L478.484 874.019C601.774 778.062 509.415 581.538 356.857 615.219C283.595 631.394 209.947 589.635 186.21 518.463L171.135 473.261C157.515 432.422 159.51 387.986 176.735 348.533C212.191 267.318 180.979 172.428 104.235 128.12L83.9592 116.414C9.3967 73.365 -84.3356 82.7883 -148.837 139.818L-210.993 194.774C-241.302 221.572 -266.175 253.947 -284.257 290.138Z" fill="#F5F5F5"/>
</svg>
